<?xml version="1.0" encoding="UTF-8" standalone="no"?>
<svg
   xmlns:dc="http://purl.org/dc/elements/1.1/"
   xmlns:cc="http://creativecommons.org/ns#"
   xmlns:rdf="http://www.w3.org/1999/02/22-rdf-syntax-ns#"
   xmlns:svg="http://www.w3.org/2000/svg"
   xmlns="http://www.w3.org/2000/svg"
   viewBox="0 0 231.03467 95.853065"
   height="95.853065"
   width="231.03467"
   xml:space="preserve"
   id="svg2"
   version="1.1"><metadata
     id="metadata8"><rdf:RDF><cc:Work
         rdf:about=""><dc:format>image/svg+xml</dc:format><dc:type
           rdf:resource="http://purl.org/dc/dcmitype/StillImage" /></cc:Work></rdf:RDF></metadata><defs
     id="defs6"><clipPath
       id="clipPath18"
       clipPathUnits="userSpaceOnUse"><path
         id="path16"
         d="M 0,71.89 H 173.276 V 0 H 0 Z" /></clipPath></defs><g
     transform="matrix(1.3333333,0,0,-1.3333333,0,95.853067)"
     id="g10"><g
       id="g12"><g
         clip-path="url(#clipPath18)"
         id="g14"><g
           transform="translate(55.5557,32.2736)"
           id="g20"><path
             id="path22"
             style="fill:#ffffff;fill-opacity:1;fill-rule:nonzero;stroke:none"
             d="M 0,0 C 0,0.11 0.091,0.2 0.195,0.2 0.306,0.2 0.396,0.11 0.396,0 v -2.963 h 1.817 c 0.1,0 0.18,-0.085 0.18,-0.185 0,-0.1 -0.08,-0.18 -0.18,-0.18 H 0.195 C 0.091,-3.328 0,-3.238 0,-3.128 Z" /></g><g
           transform="translate(60.5469,29.8957)"
           id="g24"><path
             id="path26"
             style="fill:#ffffff;fill-opacity:1;fill-rule:nonzero;stroke:none"
             d="m 0,0 v 0.251 c -0.189,0.055 -0.445,0.109 -0.76,0.109 -0.486,0 -0.756,-0.21 -0.756,-0.535 v -0.01 c 0,-0.325 0.3,-0.515 0.651,-0.515 C -0.39,-0.7 0,-0.41 0,0 m -1.906,-0.2 v 0.011 c 0,0.544 0.45,0.835 1.105,0.835 0.331,0 0.567,-0.045 0.796,-0.11 v 0.09 c 0,0.466 -0.285,0.706 -0.77,0.706 -0.26,0 -0.481,-0.061 -0.671,-0.145 -0.025,-0.01 -0.05,-0.015 -0.07,-0.015 -0.09,0 -0.171,0.075 -0.171,0.165 0,0.08 0.056,0.14 0.106,0.16 0.255,0.11 0.516,0.175 0.846,0.175 0.365,0 0.645,-0.095 0.836,-0.285 C 0.275,1.212 0.366,0.961 0.366,0.631 v -1.416 c 0,-0.111 -0.08,-0.191 -0.185,-0.191 -0.111,0 -0.186,0.08 -0.186,0.181 v 0.234 c -0.18,-0.234 -0.48,-0.445 -0.935,-0.445 -0.481,0 -0.966,0.276 -0.966,0.806" /></g><g
           transform="translate(63.5713,30.2267)"
           id="g28"><path
             id="path30"
             style="fill:#ffffff;fill-opacity:1;fill-rule:nonzero;stroke:none"
             d="M 0,0 V 0.01 C 0,0.74 0.57,1.361 1.326,1.361 1.757,1.361 2.047,1.196 2.277,0.985 2.307,0.961 2.337,0.91 2.337,0.851 2.337,0.745 2.252,0.665 2.151,0.665 2.102,0.665 2.057,0.686 2.026,0.71 1.842,0.881 1.632,1.021 1.321,1.021 0.796,1.021 0.396,0.575 0.396,0.02 V 0.01 c 0,-0.561 0.41,-1.006 0.95,-1.006 0.296,0 0.531,0.135 0.72,0.315 0.026,0.025 0.061,0.05 0.111,0.05 0.095,0 0.176,-0.085 0.176,-0.175 0,-0.046 -0.021,-0.09 -0.051,-0.12 C 2.057,-1.172 1.762,-1.342 1.326,-1.342 0.57,-1.342 0,-0.726 0,0" /></g><g
           transform="translate(66.8359,31.3625)"
           id="g32"><path
             id="path34"
             style="fill:#ffffff;fill-opacity:1;fill-rule:nonzero;stroke:none"
             d="M 0,0 C 0,0.105 0.085,0.195 0.189,0.195 0.3,0.195 0.385,0.11 0.385,0 v -0.485 c 0.19,0.43 0.566,0.69 0.891,0.69 0.115,0 0.19,-0.085 0.19,-0.195 0,-0.105 -0.07,-0.18 -0.17,-0.196 -0.5,-0.059 -0.911,-0.434 -0.911,-1.18 v -0.881 c 0,-0.106 -0.08,-0.195 -0.19,-0.195 C 0.085,-2.442 0,-2.357 0,-2.247 Z" /></g><g
           transform="translate(69.9717,31.9728)"
           id="g36"><path
             id="path38"
             style="fill:#ffffff;fill-opacity:1;fill-rule:nonzero;stroke:none"
             d="m 0,0 c 0,0.025 0.01,0.056 0.025,0.075 l 0.3,0.456 c 0.05,0.074 0.106,0.115 0.181,0.115 0.12,0 0.269,-0.081 0.269,-0.15 0,-0.04 -0.029,-0.075 -0.069,-0.115 L 0.33,0.025 C 0.25,-0.055 0.19,-0.069 0.095,-0.069 0.04,-0.069 0,-0.04 0,0 m 0.926,-1.591 c -0.04,0.47 -0.311,0.881 -0.825,0.881 -0.452,0 -0.791,-0.376 -0.842,-0.881 z M 0.16,-3.088 c -0.711,0 -1.291,0.546 -1.291,1.347 v 0.01 c 0,0.746 0.526,1.346 1.241,1.346 0.766,0 1.202,-0.626 1.202,-1.311 0,-0.106 -0.085,-0.181 -0.181,-0.181 h -1.872 c 0.055,-0.561 0.451,-0.875 0.911,-0.875 0.32,0 0.556,0.125 0.746,0.3 0.03,0.025 0.065,0.045 0.11,0.045 0.095,0 0.17,-0.075 0.17,-0.165 0,-0.045 -0.02,-0.09 -0.06,-0.125 C 0.891,-2.933 0.601,-3.088 0.16,-3.088" /></g><g
           transform="translate(73.9219,29.8957)"
           id="g40"><path
             id="path42"
             style="fill:#ffffff;fill-opacity:1;fill-rule:nonzero;stroke:none"
             d="m 0,0 v 0.251 c -0.189,0.055 -0.445,0.109 -0.76,0.109 -0.486,0 -0.756,-0.21 -0.756,-0.535 v -0.01 c 0,-0.325 0.3,-0.515 0.651,-0.515 C -0.39,-0.7 0,-0.41 0,0 m -1.906,-0.2 v 0.011 c 0,0.544 0.45,0.835 1.105,0.835 0.331,0 0.567,-0.045 0.796,-0.11 v 0.09 c 0,0.466 -0.285,0.706 -0.77,0.706 -0.26,0 -0.481,-0.061 -0.671,-0.145 -0.025,-0.01 -0.05,-0.015 -0.07,-0.015 -0.09,0 -0.171,0.075 -0.171,0.165 0,0.08 0.056,0.14 0.106,0.16 0.255,0.11 0.516,0.175 0.846,0.175 0.365,0 0.645,-0.095 0.836,-0.285 C 0.275,1.212 0.366,0.961 0.366,0.631 v -1.416 c 0,-0.111 -0.08,-0.191 -0.185,-0.191 -0.111,0 -0.186,0.08 -0.186,0.181 v 0.234 c -0.18,-0.234 -0.48,-0.445 -0.935,-0.445 -0.481,0 -0.966,0.276 -0.966,0.806" /></g><g
           transform="translate(75.3564,31.3625)"
           id="g44"><path
             id="path46"
             style="fill:#ffffff;fill-opacity:1;fill-rule:nonzero;stroke:none"
             d="M 0,0 C 0,0.105 0.085,0.195 0.19,0.195 0.3,0.195 0.385,0.11 0.385,0 v -0.28 c 0.171,0.28 0.44,0.506 0.886,0.506 0.625,0 0.991,-0.421 0.991,-1.037 v -1.436 c 0,-0.11 -0.085,-0.195 -0.191,-0.195 -0.109,0 -0.194,0.085 -0.194,0.195 v 1.341 c 0,0.48 -0.261,0.781 -0.716,0.781 -0.445,0 -0.776,-0.325 -0.776,-0.811 v -1.311 c 0,-0.11 -0.08,-0.195 -0.19,-0.195 C 0.085,-2.442 0,-2.357 0,-2.247 Z" /></g><g
           transform="translate(78.5254,30.2267)"
           id="g48"><path
             id="path50"
             style="fill:#ffffff;fill-opacity:1;fill-rule:nonzero;stroke:none"
             d="M 0,0 V 0.01 C 0,0.74 0.57,1.361 1.326,1.361 1.757,1.361 2.047,1.196 2.277,0.985 2.307,0.961 2.337,0.91 2.337,0.851 2.337,0.745 2.252,0.665 2.152,0.665 2.102,0.665 2.057,0.686 2.026,0.71 1.842,0.881 1.631,1.021 1.321,1.021 0.796,1.021 0.396,0.575 0.396,0.02 V 0.01 c 0,-0.561 0.41,-1.006 0.95,-1.006 0.296,0 0.531,0.135 0.72,0.315 0.026,0.025 0.061,0.05 0.111,0.05 0.094,0 0.175,-0.085 0.175,-0.175 0,-0.046 -0.02,-0.09 -0.05,-0.12 C 2.057,-1.172 1.762,-1.342 1.326,-1.342 0.57,-1.342 0,-0.726 0,0" /></g><g
           transform="translate(83.6074,30.382)"
           id="g52"><path
             id="path54"
             style="fill:#ffffff;fill-opacity:1;fill-rule:nonzero;stroke:none"
             d="m 0,0 c -0.04,0.47 -0.311,0.881 -0.826,0.881 -0.45,0 -0.79,-0.376 -0.84,-0.881 z m -0.766,-1.497 c -0.711,0 -1.291,0.546 -1.291,1.347 v 0.009 c 0,0.746 0.526,1.347 1.242,1.347 0.765,0 1.201,-0.626 1.201,-1.311 0,-0.106 -0.085,-0.181 -0.181,-0.181 h -1.871 c 0.055,-0.561 0.45,-0.875 0.91,-0.875 0.32,0 0.556,0.125 0.746,0.3 0.031,0.025 0.065,0.045 0.111,0.045 0.094,0 0.17,-0.076 0.17,-0.165 0,-0.045 -0.021,-0.09 -0.061,-0.125 -0.245,-0.236 -0.535,-0.391 -0.976,-0.391" /></g><g
           transform="translate(86.6709,31.3625)"
           id="g56"><path
             id="path58"
             style="fill:#ffffff;fill-opacity:1;fill-rule:nonzero;stroke:none"
             d="M 0,0 C 0,0.105 0.085,0.195 0.19,0.195 0.3,0.195 0.385,0.11 0.385,0 v -0.485 c 0.19,0.43 0.565,0.69 0.891,0.69 0.116,0 0.19,-0.085 0.19,-0.195 0,-0.105 -0.07,-0.18 -0.17,-0.196 -0.5,-0.059 -0.911,-0.434 -0.911,-1.18 v -0.881 c 0,-0.106 -0.08,-0.195 -0.19,-0.195 C 0.085,-2.442 0,-2.357 0,-2.247 Z" /></g><g
           transform="translate(90.7275,30.382)"
           id="g60"><path
             id="path62"
             style="fill:#ffffff;fill-opacity:1;fill-rule:nonzero;stroke:none"
             d="M 0,0 C -0.04,0.47 -0.311,0.881 -0.825,0.881 -1.276,0.881 -1.616,0.505 -1.667,0 Z m -0.766,-1.497 c -0.711,0 -1.291,0.546 -1.291,1.347 v 0.009 c 0,0.746 0.526,1.347 1.242,1.347 0.765,0 1.201,-0.626 1.201,-1.311 0,-0.106 -0.085,-0.181 -0.181,-0.181 h -1.872 c 0.056,-0.561 0.451,-0.875 0.911,-0.875 0.32,0 0.556,0.125 0.746,0.3 0.031,0.025 0.066,0.045 0.111,0.045 0.094,0 0.17,-0.076 0.17,-0.165 0,-0.045 -0.021,-0.09 -0.061,-0.125 -0.245,-0.236 -0.535,-0.391 -0.976,-0.391" /></g><g
           transform="translate(92.1758,29.631)"
           id="g64"><path
             id="path66"
             style="fill:#ffffff;fill-opacity:1;fill-rule:nonzero;stroke:none"
             d="m 0,0 v 1.562 h -0.21 c -0.09,0 -0.17,0.08 -0.17,0.169 0,0.095 0.08,0.17 0.17,0.17 H 0 v 0.612 c 0,0.104 0.08,0.194 0.19,0.194 0.105,0 0.196,-0.09 0.196,-0.194 V 1.901 h 0.671 c 0.094,0 0.174,-0.08 0.174,-0.17 0,-0.094 -0.08,-0.169 -0.174,-0.169 H 0.386 V 0.05 c 0,-0.316 0.175,-0.431 0.435,-0.431 0.135,0 0.205,0.035 0.236,0.035 0.089,0 0.165,-0.075 0.165,-0.165 0,-0.07 -0.046,-0.125 -0.111,-0.15 C 1.001,-0.706 0.881,-0.73 0.73,-0.73 0.315,-0.73 0,-0.525 0,0" /></g><g
           transform="translate(94.3105,31.3625)"
           id="g68"><path
             id="path70"
             style="fill:#ffffff;fill-opacity:1;fill-rule:nonzero;stroke:none"
             d="M 0,0 C 0,0.105 0.085,0.195 0.189,0.195 0.3,0.195 0.385,0.11 0.385,0 v -0.485 c 0.19,0.43 0.566,0.69 0.891,0.69 0.115,0 0.19,-0.085 0.19,-0.195 0,-0.105 -0.07,-0.18 -0.17,-0.196 -0.5,-0.059 -0.911,-0.434 -0.911,-1.18 v -0.881 c 0,-0.106 -0.08,-0.195 -0.19,-0.195 C 0.085,-2.442 0,-2.357 0,-2.247 Z" /></g><g
           transform="translate(98.6172,30.2267)"
           id="g72"><path
             id="path74"
             style="fill:#ffffff;fill-opacity:1;fill-rule:nonzero;stroke:none"
             d="m 0,0 v 0.01 c 0,0.555 -0.415,1.011 -0.961,1.011 -0.56,0 -0.945,-0.456 -0.945,-1.001 V 0.01 c 0,-0.556 0.41,-1.006 0.955,-1.006 C -0.391,-0.996 0,-0.546 0,0 m -2.302,0 v 0.01 c 0,0.73 0.571,1.351 1.351,1.351 0.776,0 1.347,-0.611 1.347,-1.341 V 0.01 c 0,-0.731 -0.576,-1.352 -1.357,-1.352 -0.775,0 -1.341,0.611 -1.341,1.342" /></g><g
           transform="translate(102.1729,29.1154)"
           id="g76"><path
             id="path78"
             style="fill:#ffffff;fill-opacity:1;fill-rule:nonzero;stroke:none"
             d="m 0,0 c 0,-0.105 -0.08,-0.195 -0.19,-0.195 -0.105,0 -0.19,0.085 -0.19,0.195 V 0.28 C -0.556,0 -0.82,-0.226 -1.267,-0.226 c -0.625,0 -0.99,0.421 -0.99,1.037 v 1.436 c 0,0.11 0.08,0.195 0.19,0.195 0.105,0 0.195,-0.085 0.195,-0.195 V 0.906 c 0,-0.48 0.261,-0.781 0.716,-0.781 0.44,0 0.776,0.325 0.776,0.811 v 1.311 c 0,0.11 0.08,0.195 0.19,0.195 C -0.085,2.442 0,2.357 0,2.247 Z" /></g><g
           transform="translate(104.3271,28.9055)"
           id="g80"><path
             id="path82"
             style="fill:#ffffff;fill-opacity:1;fill-rule:nonzero;stroke:none"
             d="M 0,0 H -0.021 C -0.125,0 -0.195,0.064 -0.24,0.165 l -0.972,2.192 c -0.01,0.035 -0.024,0.07 -0.024,0.105 0,0.101 0.085,0.19 0.195,0.19 0.11,0 0.165,-0.065 0.195,-0.15 L -0.011,0.48 0.841,2.512 c 0.024,0.075 0.08,0.14 0.18,0.14 0.105,0 0.19,-0.085 0.19,-0.19 0,-0.035 -0.01,-0.07 -0.021,-0.095 L 0.215,0.165 C 0.17,0.064 0.104,0 0,0" /></g><g
           transform="translate(108.2168,30.382)"
           id="g84"><path
             id="path86"
             style="fill:#ffffff;fill-opacity:1;fill-rule:nonzero;stroke:none"
             d="m 0,0 c -0.04,0.47 -0.311,0.881 -0.826,0.881 -0.45,0 -0.79,-0.376 -0.84,-0.881 z m -0.766,-1.497 c -0.711,0 -1.291,0.546 -1.291,1.347 v 0.009 c 0,0.746 0.526,1.347 1.242,1.347 0.765,0 1.201,-0.626 1.201,-1.311 0,-0.106 -0.085,-0.181 -0.181,-0.181 h -1.871 c 0.055,-0.561 0.45,-0.875 0.91,-0.875 0.32,0 0.556,0.125 0.746,0.3 0.031,0.025 0.065,0.045 0.111,0.045 0.094,0 0.17,-0.076 0.17,-0.165 0,-0.045 -0.021,-0.09 -0.061,-0.125 -0.245,-0.236 -0.535,-0.391 -0.976,-0.391" /></g><g
           transform="translate(111.3154,32.4289)"
           id="g88"><path
             id="path90"
             style="fill:#ffffff;fill-opacity:1;fill-rule:nonzero;stroke:none"
             d="M 0,0 C 0,0.104 0.085,0.195 0.189,0.195 0.3,0.195 0.385,0.104 0.385,0 v -3.313 c 0,-0.111 -0.08,-0.196 -0.191,-0.196 C 0.085,-3.509 0,-3.424 0,-3.313 Z" /></g><g
           transform="translate(114.7422,30.382)"
           id="g92"><path
             id="path94"
             style="fill:#ffffff;fill-opacity:1;fill-rule:nonzero;stroke:none"
             d="m 0,0 c -0.04,0.47 -0.311,0.881 -0.826,0.881 -0.45,0 -0.79,-0.376 -0.84,-0.881 z m -0.766,-1.497 c -0.711,0 -1.291,0.546 -1.291,1.347 v 0.009 c 0,0.746 0.526,1.347 1.242,1.347 0.765,0 1.201,-0.626 1.201,-1.311 0,-0.106 -0.085,-0.181 -0.181,-0.181 h -1.871 c 0.055,-0.561 0.45,-0.875 0.91,-0.875 0.32,0 0.556,0.125 0.746,0.3 0.031,0.025 0.065,0.045 0.111,0.045 0.094,0 0.17,-0.076 0.17,-0.165 0,-0.045 -0.021,-0.09 -0.061,-0.125 -0.245,-0.236 -0.535,-0.391 -0.976,-0.391" /></g><g
           transform="translate(117.665,29.2209)"
           id="g96"><path
             id="path98"
             style="fill:#ffffff;fill-opacity:1;fill-rule:nonzero;stroke:none"
             d="m 0,0 c -0.035,0.024 -0.069,0.074 -0.069,0.14 0,0.089 0.074,0.165 0.17,0.165 0.035,0 0.07,-0.01 0.094,-0.031 C 0.461,0.095 0.736,0 1.017,0 1.326,0 1.552,0.16 1.552,0.41 V 0.42 C 1.552,0.681 1.246,0.78 0.906,0.875 0.501,0.99 0.05,1.131 0.05,1.606 v 0.01 c 0,0.446 0.371,0.74 0.881,0.74 0.275,0 0.576,-0.085 0.826,-0.219 0.05,-0.031 0.096,-0.085 0.096,-0.16 0,-0.09 -0.076,-0.165 -0.171,-0.165 -0.036,0 -0.065,0.009 -0.085,0.019 -0.22,0.125 -0.455,0.2 -0.676,0.2 -0.305,0 -0.5,-0.16 -0.5,-0.375 v -0.01 c 0,-0.245 0.32,-0.34 0.665,-0.445 0.4,-0.12 0.831,-0.275 0.831,-0.741 V 0.45 C 1.917,-0.04 1.512,-0.326 0.996,-0.326 0.656,-0.326 0.28,-0.2 0,0" /></g><g
           transform="translate(122.6875,30.2267)"
           id="g100"><path
             id="path102"
             style="fill:#ffffff;fill-opacity:1;fill-rule:nonzero;stroke:none"
             d="m 0,0 v 0.01 c 0,0.555 -0.415,1.011 -0.961,1.011 -0.56,0 -0.945,-0.456 -0.945,-1.001 V 0.01 c 0,-0.556 0.41,-1.006 0.955,-1.006 C -0.391,-0.996 0,-0.546 0,0 m -2.302,0 v 0.01 c 0,0.73 0.571,1.351 1.351,1.351 0.776,0 1.347,-0.611 1.347,-1.341 V 0.01 c 0,-0.731 -0.576,-1.352 -1.357,-1.352 -0.775,0 -1.341,0.611 -1.341,1.342" /></g><g
           transform="translate(126.2422,29.1154)"
           id="g104"><path
             id="path106"
             style="fill:#ffffff;fill-opacity:1;fill-rule:nonzero;stroke:none"
             d="m 0,0 c 0,-0.105 -0.08,-0.195 -0.19,-0.195 -0.105,0 -0.19,0.085 -0.19,0.195 V 0.28 C -0.556,0 -0.82,-0.226 -1.266,-0.226 c -0.626,0 -0.991,0.421 -0.991,1.037 v 1.436 c 0,0.11 0.08,0.195 0.191,0.195 0.104,0 0.194,-0.085 0.194,-0.195 V 0.906 c 0,-0.48 0.261,-0.781 0.716,-0.781 0.44,0 0.776,0.325 0.776,0.811 v 1.311 c 0,0.11 0.08,0.195 0.19,0.195 C -0.085,2.442 0,2.357 0,2.247 Z" /></g><g
           transform="translate(127.3555,31.3625)"
           id="g108"><path
             id="path110"
             style="fill:#ffffff;fill-opacity:1;fill-rule:nonzero;stroke:none"
             d="M 0,0 C 0,0.105 0.085,0.195 0.189,0.195 0.3,0.195 0.385,0.11 0.385,0 v -0.485 c 0.19,0.43 0.566,0.69 0.891,0.69 0.115,0 0.19,-0.085 0.19,-0.195 0,-0.105 -0.07,-0.18 -0.17,-0.196 -0.5,-0.059 -0.911,-0.434 -0.911,-1.18 v -0.881 c 0,-0.106 -0.08,-0.195 -0.19,-0.195 C 0.085,-2.442 0,-2.357 0,-2.247 Z" /></g><g
           transform="translate(129.666,31.3625)"
           id="g112"><path
             id="path114"
             style="fill:#ffffff;fill-opacity:1;fill-rule:nonzero;stroke:none"
             d="M 0,0 C 0,0.105 0.085,0.195 0.189,0.195 0.3,0.195 0.385,0.11 0.385,0 v -2.247 c 0,-0.11 -0.08,-0.195 -0.19,-0.195 C 0.085,-2.442 0,-2.357 0,-2.247 Z m -0.035,0.981 c 0,0.125 0.099,0.206 0.224,0.206 0.131,0 0.231,-0.081 0.231,-0.206 V 0.916 c 0,-0.12 -0.1,-0.205 -0.231,-0.205 -0.125,0 -0.224,0.085 -0.224,0.205 z" /></g><g
           transform="translate(131.1953,31.3625)"
           id="g116"><path
             id="path118"
             style="fill:#ffffff;fill-opacity:1;fill-rule:nonzero;stroke:none"
             d="M 0,0 C 0,0.105 0.085,0.195 0.189,0.195 0.3,0.195 0.385,0.11 0.385,0 v -0.485 c 0.19,0.43 0.566,0.69 0.891,0.69 0.115,0 0.19,-0.085 0.19,-0.195 0,-0.105 -0.07,-0.18 -0.17,-0.196 -0.5,-0.059 -0.911,-0.434 -0.911,-1.18 v -0.881 c 0,-0.106 -0.08,-0.195 -0.19,-0.195 C 0.085,-2.442 0,-2.357 0,-2.247 Z" /></g><g
           transform="translate(135.252,30.382)"
           id="g120"><path
             id="path122"
             style="fill:#ffffff;fill-opacity:1;fill-rule:nonzero;stroke:none"
             d="m 0,0 c -0.04,0.47 -0.311,0.881 -0.826,0.881 -0.45,0 -0.79,-0.376 -0.84,-0.881 z m -0.766,-1.497 c -0.711,0 -1.291,0.546 -1.291,1.347 v 0.009 c 0,0.746 0.526,1.347 1.242,1.347 0.765,0 1.201,-0.626 1.201,-1.311 0,-0.106 -0.085,-0.181 -0.181,-0.181 h -1.871 c 0.055,-0.561 0.45,-0.875 0.91,-0.875 0.32,0 0.556,0.125 0.746,0.3 0.031,0.025 0.065,0.045 0.111,0.045 0.094,0 0.17,-0.076 0.17,-0.165 0,-0.045 -0.021,-0.09 -0.061,-0.125 -0.245,-0.236 -0.535,-0.391 -0.976,-0.391" /></g><g
           transform="translate(138.3301,32.3039)"
           id="g124"><path
             id="path126"
             style="fill:#ffffff;fill-opacity:1;fill-rule:nonzero;stroke:none"
             d="M 0,0 C -0.005,0.09 0.061,0.16 0.146,0.16 H 0.32 C 0.41,0.16 0.471,0.09 0.466,0 L 0.351,-2.272 C 0.346,-2.338 0.295,-2.388 0.235,-2.388 c -0.065,0 -0.115,0.05 -0.12,0.116 z m 0.235,-2.809 c 0.135,0 0.236,-0.099 0.236,-0.234 v -0.101 c 0,-0.134 -0.101,-0.24 -0.236,-0.24 -0.139,0 -0.24,0.106 -0.24,0.24 v 0.101 c 0,0.135 0.101,0.234 0.24,0.234" /></g><g
           transform="translate(44.6943,40.1933)"
           id="g128"><path
             id="path130"
             style="fill:#c8c7c7;fill-opacity:1;fill-rule:nonzero;stroke:none"
             d="m 0,0 c 0.942,0 1.482,0.503 1.482,1.243 v 0.025 c 0,0.829 -0.578,1.256 -1.52,1.256 H -1.959 V 0 Z m -3.893,3.303 c 0,0.54 0.427,0.967 0.967,0.967 h 3.051 c 1.118,0 1.984,-0.314 2.562,-0.892 0.49,-0.49 0.754,-1.18 0.754,-2.009 V 1.344 c 0,-1.382 -0.691,-2.235 -1.758,-2.675 l 1.343,-1.632 c 0.189,-0.239 0.314,-0.44 0.314,-0.741 0,-0.54 -0.452,-0.892 -0.916,-0.892 -0.44,0 -0.729,0.213 -0.955,0.502 l -1.883,2.386 h -1.545 v -1.921 c 0,-0.54 -0.427,-0.967 -0.967,-0.967 -0.54,0 -0.967,0.427 -0.967,0.967 z" /></g><g
           transform="translate(50.1938,36.6396)"
           id="g132"><path
             id="path134"
             style="fill:#c8c7c7;fill-opacity:1;fill-rule:nonzero;stroke:none"
             d="m 0,0 v 6.857 c 0,0.54 0.427,0.966 0.967,0.966 H 5.839 C 6.317,7.823 6.706,7.434 6.706,6.957 6.706,6.48 6.317,6.103 5.839,6.103 H 1.921 V 4.32 H 5.274 C 5.751,4.32 6.141,3.931 6.141,3.453 6.141,2.976 5.751,2.6 5.274,2.6 H 1.921 V 0.753 h 3.981 c 0.477,0 0.867,-0.389 0.867,-0.866 0,-0.477 -0.39,-0.854 -0.867,-0.854 H 0.967 C 0.427,-0.967 0,-0.54 0,0" /></g><g
           transform="translate(58.5316,40.0429)"
           id="g136"><path
             id="path138"
             style="fill:#c8c7c7;fill-opacity:1;fill-rule:nonzero;stroke:none"
             d="m 0,0 v 0.025 c 0,2.499 1.884,4.546 4.584,4.546 1.318,0 2.21,-0.352 2.938,-0.892 C 7.723,3.529 7.899,3.252 7.899,2.913 7.899,2.386 7.472,1.971 6.944,1.971 6.681,1.971 6.505,2.072 6.367,2.16 5.827,2.561 5.262,2.788 4.571,2.788 3.089,2.788 2.022,1.557 2.022,0.05 V 0.025 c 0,-1.507 1.042,-2.763 2.549,-2.763 0.816,0 1.356,0.252 1.909,0.691 0.15,0.125 0.351,0.214 0.577,0.214 0.49,0 0.905,-0.402 0.905,-0.892 0,-0.301 -0.151,-0.54 -0.327,-0.691 C 6.844,-4.107 5.915,-4.521 4.508,-4.521 1.921,-4.521 0,-2.524 0,0" /></g><g
           transform="translate(75.1822,40.0429)"
           id="g140"><path
             id="path142"
             style="fill:#c8c7c7;fill-opacity:1;fill-rule:nonzero;stroke:none"
             d="m 0,0 v 0.025 c 0,1.507 -1.105,2.763 -2.662,2.763 -1.557,0 -2.637,-1.231 -2.637,-2.738 V 0.025 c 0,-1.507 1.105,-2.763 2.662,-2.763 C -1.08,-2.738 0,-1.507 0,0 m -7.321,0 v 0.025 c 0,2.499 1.972,4.546 4.684,4.546 2.712,0 4.659,-2.022 4.659,-4.521 V 0.025 c 0,-2.499 -1.972,-4.546 -4.684,-4.546 -2.712,0 -4.659,2.022 -4.659,4.521" /></g><g
           transform="translate(79.0995,39.4399)"
           id="g144"><path
             id="path146"
             style="fill:#c8c7c7;fill-opacity:1;fill-rule:nonzero;stroke:none"
             d="m 0,0 v 4.132 c 0,0.54 0.427,0.966 0.967,0.966 0.54,0 0.967,-0.426 0.967,-0.966 V 0.05 c 0,-1.431 0.716,-2.172 1.896,-2.172 1.18,0 1.896,0.716 1.896,2.11 v 4.144 c 0,0.54 0.427,0.966 0.967,0.966 0.54,0 0.967,-0.426 0.967,-0.966 V 0.063 C 7.66,-2.599 6.166,-3.905 3.805,-3.905 1.444,-3.905 0,-2.587 0,0" /></g><g
           transform="translate(91.3928,36.3005)"
           id="g148"><path
             id="path150"
             style="fill:#c8c7c7;fill-opacity:1;fill-rule:nonzero;stroke:none"
             d="m 0,0 -2.851,6.819 c -0.062,0.15 -0.113,0.301 -0.113,0.464 0,0.54 0.427,0.955 0.967,0.955 0.503,0 0.829,-0.289 0.98,-0.678 L 1.18,1.871 3.403,7.622 c 0.126,0.314 0.465,0.616 0.929,0.616 0.528,0 0.954,-0.402 0.954,-0.93 0,-0.15 -0.05,-0.313 -0.1,-0.426 L 2.31,0 C 2.109,-0.477 1.745,-0.766 1.218,-0.766 H 1.092 C 0.565,-0.766 0.201,-0.477 0,0" /></g><g
           transform="translate(102.3675,40.1933)"
           id="g152"><path
             id="path154"
             style="fill:#c8c7c7;fill-opacity:1;fill-rule:nonzero;stroke:none"
             d="m 0,0 c 0.942,0 1.482,0.503 1.482,1.243 v 0.025 c 0,0.829 -0.578,1.256 -1.52,1.256 H -1.959 V 0 Z m -3.893,3.303 c 0,0.54 0.427,0.967 0.967,0.967 h 3.051 c 1.118,0 1.984,-0.314 2.562,-0.892 0.49,-0.49 0.754,-1.18 0.754,-2.009 V 1.344 c 0,-1.382 -0.691,-2.235 -1.758,-2.675 l 1.343,-1.632 c 0.189,-0.239 0.314,-0.44 0.314,-0.741 0,-0.54 -0.452,-0.892 -0.916,-0.892 -0.44,0 -0.729,0.213 -0.955,0.502 l -1.883,2.386 h -1.545 v -1.921 c 0,-0.54 -0.427,-0.967 -0.967,-0.967 -0.54,0 -0.967,0.427 -0.967,0.967 z" /></g><g
           transform="translate(107.8668,36.6396)"
           id="g156"><path
             id="path158"
             style="fill:#c8c7c7;fill-opacity:1;fill-rule:nonzero;stroke:none"
             d="m 0,0 v 6.857 c 0,0.54 0.427,0.966 0.967,0.966 H 5.839 C 6.317,7.823 6.706,7.434 6.706,6.957 6.706,6.48 6.317,6.103 5.839,6.103 H 1.921 V 4.32 H 5.274 C 5.751,4.32 6.141,3.931 6.141,3.453 6.141,2.976 5.751,2.6 5.274,2.6 H 1.921 V 0.753 h 3.981 c 0.477,0 0.867,-0.389 0.867,-0.866 0,-0.477 -0.39,-0.854 -0.867,-0.854 H 0.967 C 0.427,-0.967 0,-0.54 0,0" /></g><g
           transform="translate(116.5938,43.5464)"
           id="g160"><path
             id="path162"
             style="fill:#c8c7c7;fill-opacity:1;fill-rule:nonzero;stroke:none"
             d="M 0,0 C 0,0.54 0.427,0.967 0.967,0.967 H 1.18 c 0.415,0 0.704,-0.214 0.879,-0.502 L 4.395,-3.34 6.743,0.477 c 0.201,0.327 0.478,0.49 0.867,0.49 H 7.823 C 8.363,0.967 8.79,0.54 8.79,0 v -6.982 c 0,-0.54 -0.427,-0.967 -0.967,-0.967 -0.527,0 -0.954,0.44 -0.954,0.967 V -2.6 L 5.174,-5.211 c -0.201,-0.302 -0.452,-0.49 -0.804,-0.49 -0.352,0 -0.603,0.188 -0.804,0.49 l -1.67,2.574 v -4.37 C 1.896,-7.535 1.469,-7.949 0.942,-7.949 0.414,-7.949 0,-7.535 0,-7.007 Z" /></g><g
           transform="translate(127.8069,36.6396)"
           id="g164"><path
             id="path166"
             style="fill:#c8c7c7;fill-opacity:1;fill-rule:nonzero;stroke:none"
             d="m 0,0 v 6.857 c 0,0.54 0.427,0.966 0.967,0.966 h 4.872 c 0.477,0 0.867,-0.389 0.867,-0.866 0,-0.477 -0.39,-0.854 -0.867,-0.854 H 1.921 V 4.32 H 5.274 C 5.751,4.32 6.141,3.931 6.141,3.453 6.141,2.976 5.751,2.6 5.274,2.6 H 1.921 V 0.753 h 3.981 c 0.477,0 0.867,-0.389 0.867,-0.866 0,-0.477 -0.39,-0.854 -0.867,-0.854 H 0.967 C 0.427,-0.967 0,-0.54 0,0" /></g><g
           transform="translate(136.5339,43.5464)"
           id="g168"><path
             id="path170"
             style="fill:#c8c7c7;fill-opacity:1;fill-rule:nonzero;stroke:none"
             d="m 0,0 c 0,0.54 0.427,0.967 0.967,0.967 h 0.201 c 0.465,0 0.741,-0.226 1.005,-0.565 l 3.729,-4.898 v 4.533 c 0,0.528 0.427,0.955 0.954,0.955 0.528,0 0.955,-0.427 0.955,-0.955 v -6.994 c 0,-0.54 -0.427,-0.967 -0.967,-0.967 H 6.781 c -0.464,0 -0.741,0.226 -1.005,0.565 l -3.867,5.074 v -4.71 C 1.909,-7.522 1.482,-7.949 0.954,-7.949 0.427,-7.949 0,-7.522 0,-6.995 Z" /></g><g
           transform="translate(148.8146,42.6797)"
           id="g172"><path
             id="path174"
             style="fill:#ffffff;fill-opacity:1;fill-rule:nonzero;stroke:none"
             d="m 0,0 h -1.858 c -0.49,0 -0.892,0.402 -0.892,0.892 0,0.49 0.402,0.891 0.892,0.891 h 5.65 c 0.49,0 0.892,-0.401 0.892,-0.891 C 4.684,0.402 4.282,0 3.792,0 H 1.934 v -6.115 c 0,-0.54 -0.427,-0.967 -0.967,-0.967 C 0.427,-7.082 0,-6.655 0,-6.115 Z" /></g><g
           transform="translate(25.1177,44.4696)"
           id="g176"><path
             id="path178"
             style="fill:#0097dc;fill-opacity:1;fill-rule:nonzero;stroke:none"
             d="m 0,0 c -0.475,0 -0.861,-0.385 -0.863,-0.86 v -4.492 c 0,-0.007 -0.001,-0.014 -0.001,-0.022 0,-0.973 -0.792,-1.766 -1.766,-1.766 -0.689,0 -1.32,0.405 -1.607,1.032 -0.198,0.434 -0.711,0.624 -1.144,0.426 -0.433,-0.199 -0.623,-0.711 -0.425,-1.144 0.567,-1.239 1.814,-2.039 3.176,-2.039 1.92,0 3.483,1.558 3.491,3.477 H 0.863 V -0.86 C 0.861,-0.385 0.475,0 0,0" /></g><g
           transform="translate(33.8636,44.4696)"
           id="g180"><path
             id="path182"
             style="fill:#0097dc;fill-opacity:1;fill-rule:nonzero;stroke:none"
             d="M 0,0 H -0.002 -1.917 -3.911 -4.67 -4.673 c -0.474,0 -0.859,-0.384 -0.861,-0.858 v -7.148 c 10e-4,-0.475 0.386,-0.859 0.861,-0.859 0.475,0 0.86,0.384 0.862,0.859 v 6.283 H -0.605 -0.002 0 c 0.476,0 0.862,0.386 0.862,0.861 C 0.862,-0.386 0.476,0 0,0" /></g><g
           transform="translate(33.0984,40.9538)"
           id="g184"><path
             id="path186"
             style="fill:#0097dc;fill-opacity:1;fill-rule:nonzero;stroke:none"
             d="m 0,0 h -1.067 c -0.475,0 -0.861,-0.386 -0.861,-0.861 0,-0.476 0.386,-0.861 0.861,-0.861 H 0 c 0.476,0 0.861,0.385 0.861,0.861 C 0.861,-0.386 0.476,0 0,0" /></g></g></g></g></svg>