<?xml version="1.0" encoding="UTF-8" standalone="no"?>
<svg
        xmlns:dc="http://purl.org/dc/elements/1.1/"
        xmlns:cc="http://creativecommons.org/ns#"
        xmlns:rdf="http://www.w3.org/1999/02/22-rdf-syntax-ns#"
        xmlns:svg="http://www.w3.org/2000/svg"
        xmlns="http://www.w3.org/2000/svg"
        viewBox="0 0 231 96"
        height="96"
        width="231"
        xml:space="preserve"
        id="svg2"
        version="1.1">
    <defs id="defs6"><clipPath
       id="clipPath18"
       clipPathUnits="userSpaceOnUse"><path
         id="path16"
         d="M 0,71.89 H 173.276 V 0 H 0 Z" /></clipPath></defs>
    <g
            transform="matrix(1.3333333,0,0,-1.3333333,0,95.853067)"
            id="g10">
    <g
            id="g12">
        <g
                clip-path="url(#clipPath18)"
                id="g14">
    <g
            transform="translate(44.6943,40.1933)"
            id="g128"><path
             id="path130"
             style="fill:#fff;fill-opacity:1;fill-rule:nonzero;stroke:none"
             d="m 0,0 c 0.942,0 1.482,0.503 1.482,1.243 v 0.025 c 0,0.829 -0.578,1.256 -1.52,1.256 H -1.959 V 0 Z m -3.893,3.303 c 0,0.54 0.427,0.967 0.967,0.967 h 3.051 c 1.118,0 1.984,-0.314 2.562,-0.892 0.49,-0.49 0.754,-1.18 0.754,-2.009 V 1.344 c 0,-1.382 -0.691,-2.235 -1.758,-2.675 l 1.343,-1.632 c 0.189,-0.239 0.314,-0.44 0.314,-0.741 0,-0.54 -0.452,-0.892 -0.916,-0.892 -0.44,0 -0.729,0.213 -0.955,0.502 l -1.883,2.386 h -1.545 v -1.921 c 0,-0.54 -0.427,-0.967 -0.967,-0.967 -0.54,0 -0.967,0.427 -0.967,0.967 z" /></g>
            <g
                    transform="translate(50.1938,36.6396)"
                    id="g132"><path
             id="path134"
             style="fill:#fff;fill-opacity:1;fill-rule:nonzero;stroke:none"
             d="m 0,0 v 6.857 c 0,0.54 0.427,0.966 0.967,0.966 H 5.839 C 6.317,7.823 6.706,7.434 6.706,6.957 6.706,6.48 6.317,6.103 5.839,6.103 H 1.921 V 4.32 H 5.274 C 5.751,4.32 6.141,3.931 6.141,3.453 6.141,2.976 5.751,2.6 5.274,2.6 H 1.921 V 0.753 h 3.981 c 0.477,0 0.867,-0.389 0.867,-0.866 0,-0.477 -0.39,-0.854 -0.867,-0.854 H 0.967 C 0.427,-0.967 0,-0.54 0,0" /></g>
            <g
                    transform="translate(58.5316,40.0429)"
                    id="g136"><path
             id="path138"
             style="fill:#fff;fill-opacity:1;fill-rule:nonzero;stroke:none"
             d="m 0,0 v 0.025 c 0,2.499 1.884,4.546 4.584,4.546 1.318,0 2.21,-0.352 2.938,-0.892 C 7.723,3.529 7.899,3.252 7.899,2.913 7.899,2.386 7.472,1.971 6.944,1.971 6.681,1.971 6.505,2.072 6.367,2.16 5.827,2.561 5.262,2.788 4.571,2.788 3.089,2.788 2.022,1.557 2.022,0.05 V 0.025 c 0,-1.507 1.042,-2.763 2.549,-2.763 0.816,0 1.356,0.252 1.909,0.691 0.15,0.125 0.351,0.214 0.577,0.214 0.49,0 0.905,-0.402 0.905,-0.892 0,-0.301 -0.151,-0.54 -0.327,-0.691 C 6.844,-4.107 5.915,-4.521 4.508,-4.521 1.921,-4.521 0,-2.524 0,0" /></g>
            <g
                    transform="translate(75.1822,40.0429)"
                    id="g140"><path
             id="path142"
             style="fill:#fff;fill-opacity:1;fill-rule:nonzero;stroke:none"
             d="m 0,0 v 0.025 c 0,1.507 -1.105,2.763 -2.662,2.763 -1.557,0 -2.637,-1.231 -2.637,-2.738 V 0.025 c 0,-1.507 1.105,-2.763 2.662,-2.763 C -1.08,-2.738 0,-1.507 0,0 m -7.321,0 v 0.025 c 0,2.499 1.972,4.546 4.684,4.546 2.712,0 4.659,-2.022 4.659,-4.521 V 0.025 c 0,-2.499 -1.972,-4.546 -4.684,-4.546 -2.712,0 -4.659,2.022 -4.659,4.521" /></g>
            <g
                    transform="translate(79.0995,39.4399)"
                    id="g144"><path
             id="path146"
             style="fill:#fff;fill-opacity:1;fill-rule:nonzero;stroke:none"
             d="m 0,0 v 4.132 c 0,0.54 0.427,0.966 0.967,0.966 0.54,0 0.967,-0.426 0.967,-0.966 V 0.05 c 0,-1.431 0.716,-2.172 1.896,-2.172 1.18,0 1.896,0.716 1.896,2.11 v 4.144 c 0,0.54 0.427,0.966 0.967,0.966 0.54,0 0.967,-0.426 0.967,-0.966 V 0.063 C 7.66,-2.599 6.166,-3.905 3.805,-3.905 1.444,-3.905 0,-2.587 0,0" /></g>
            <g
                    transform="translate(91.3928,36.3005)"
                    id="g148"><path
             id="path150"
             style="fill:#fff;fill-opacity:1;fill-rule:nonzero;stroke:none"
             d="m 0,0 -2.851,6.819 c -0.062,0.15 -0.113,0.301 -0.113,0.464 0,0.54 0.427,0.955 0.967,0.955 0.503,0 0.829,-0.289 0.98,-0.678 L 1.18,1.871 3.403,7.622 c 0.126,0.314 0.465,0.616 0.929,0.616 0.528,0 0.954,-0.402 0.954,-0.93 0,-0.15 -0.05,-0.313 -0.1,-0.426 L 2.31,0 C 2.109,-0.477 1.745,-0.766 1.218,-0.766 H 1.092 C 0.565,-0.766 0.201,-0.477 0,0" /></g>
            <g
                    transform="translate(102.3675,40.1933)"
                    id="g152"><path
             id="path154"
             style="fill:#fff;fill-opacity:1;fill-rule:nonzero;stroke:none"
             d="m 0,0 c 0.942,0 1.482,0.503 1.482,1.243 v 0.025 c 0,0.829 -0.578,1.256 -1.52,1.256 H -1.959 V 0 Z m -3.893,3.303 c 0,0.54 0.427,0.967 0.967,0.967 h 3.051 c 1.118,0 1.984,-0.314 2.562,-0.892 0.49,-0.49 0.754,-1.18 0.754,-2.009 V 1.344 c 0,-1.382 -0.691,-2.235 -1.758,-2.675 l 1.343,-1.632 c 0.189,-0.239 0.314,-0.44 0.314,-0.741 0,-0.54 -0.452,-0.892 -0.916,-0.892 -0.44,0 -0.729,0.213 -0.955,0.502 l -1.883,2.386 h -1.545 v -1.921 c 0,-0.54 -0.427,-0.967 -0.967,-0.967 -0.54,0 -0.967,0.427 -0.967,0.967 z" /></g>
            <g
                    transform="translate(107.8668,36.6396)"
                    id="g156"><path
             id="path158"
             style="fill:#fff;fill-opacity:1;fill-rule:nonzero;stroke:none"
             d="m 0,0 v 6.857 c 0,0.54 0.427,0.966 0.967,0.966 H 5.839 C 6.317,7.823 6.706,7.434 6.706,6.957 6.706,6.48 6.317,6.103 5.839,6.103 H 1.921 V 4.32 H 5.274 C 5.751,4.32 6.141,3.931 6.141,3.453 6.141,2.976 5.751,2.6 5.274,2.6 H 1.921 V 0.753 h 3.981 c 0.477,0 0.867,-0.389 0.867,-0.866 0,-0.477 -0.39,-0.854 -0.867,-0.854 H 0.967 C 0.427,-0.967 0,-0.54 0,0" /></g>
            <g
                    transform="translate(116.5938,43.5464)"
                    id="g160"><path
             id="path162"
             style="fill:#fff;fill-opacity:1;fill-rule:nonzero;stroke:none"
             d="M 0,0 C 0,0.54 0.427,0.967 0.967,0.967 H 1.18 c 0.415,0 0.704,-0.214 0.879,-0.502 L 4.395,-3.34 6.743,0.477 c 0.201,0.327 0.478,0.49 0.867,0.49 H 7.823 C 8.363,0.967 8.79,0.54 8.79,0 v -6.982 c 0,-0.54 -0.427,-0.967 -0.967,-0.967 -0.527,0 -0.954,0.44 -0.954,0.967 V -2.6 L 5.174,-5.211 c -0.201,-0.302 -0.452,-0.49 -0.804,-0.49 -0.352,0 -0.603,0.188 -0.804,0.49 l -1.67,2.574 v -4.37 C 1.896,-7.535 1.469,-7.949 0.942,-7.949 0.414,-7.949 0,-7.535 0,-7.007 Z" /></g>
            <g
                    transform="translate(127.8069,36.6396)"
                    id="g164"><path
             id="path166"
             style="fill:#fff;fill-opacity:1;fill-rule:nonzero;stroke:none"
             d="m 0,0 v 6.857 c 0,0.54 0.427,0.966 0.967,0.966 h 4.872 c 0.477,0 0.867,-0.389 0.867,-0.866 0,-0.477 -0.39,-0.854 -0.867,-0.854 H 1.921 V 4.32 H 5.274 C 5.751,4.32 6.141,3.931 6.141,3.453 6.141,2.976 5.751,2.6 5.274,2.6 H 1.921 V 0.753 h 3.981 c 0.477,0 0.867,-0.389 0.867,-0.866 0,-0.477 -0.39,-0.854 -0.867,-0.854 H 0.967 C 0.427,-0.967 0,-0.54 0,0" /></g>
            <g
                    transform="translate(136.5339,43.5464)"
                    id="g168"><path
             id="path170"
             style="fill:#fff;fill-opacity:1;fill-rule:nonzero;stroke:none"
             d="m 0,0 c 0,0.54 0.427,0.967 0.967,0.967 h 0.201 c 0.465,0 0.741,-0.226 1.005,-0.565 l 3.729,-4.898 v 4.533 c 0,0.528 0.427,0.955 0.954,0.955 0.528,0 0.955,-0.427 0.955,-0.955 v -6.994 c 0,-0.54 -0.427,-0.967 -0.967,-0.967 H 6.781 c -0.464,0 -0.741,0.226 -1.005,0.565 l -3.867,5.074 v -4.71 C 1.909,-7.522 1.482,-7.949 0.954,-7.949 0.427,-7.949 0,-7.522 0,-6.995 Z" /></g>
            <g
                    transform="translate(148.8146,42.6797)"
                    id="g172"><path
             id="path174"
             style="fill:#fff;fill-opacity:1;fill-rule:nonzero;stroke:none"
             d="m 0,0 h -1.858 c -0.49,0 -0.892,0.402 -0.892,0.892 0,0.49 0.402,0.891 0.892,0.891 h 5.65 c 0.49,0 0.892,-0.401 0.892,-0.891 C 4.684,0.402 4.282,0 3.792,0 H 1.934 v -6.115 c 0,-0.54 -0.427,-0.967 -0.967,-0.967 C 0.427,-7.082 0,-6.655 0,-6.115 Z" /></g>
            <g
                    transform="translate(25.1177,44.4696)"
                    id="g176"><path
             id="path178"
             style="fill:#0097dc;fill-opacity:1;fill-rule:nonzero;stroke:none"
             d="m 0,0 c -0.475,0 -0.861,-0.385 -0.863,-0.86 v -4.492 c 0,-0.007 -0.001,-0.014 -0.001,-0.022 0,-0.973 -0.792,-1.766 -1.766,-1.766 -0.689,0 -1.32,0.405 -1.607,1.032 -0.198,0.434 -0.711,0.624 -1.144,0.426 -0.433,-0.199 -0.623,-0.711 -0.425,-1.144 0.567,-1.239 1.814,-2.039 3.176,-2.039 1.92,0 3.483,1.558 3.491,3.477 H 0.863 V -0.86 C 0.861,-0.385 0.475,0 0,0" /></g>
            <g
                    transform="translate(33.8636,44.4696)"
                    id="g180"><path
             id="path182"
             style="fill:#0097dc;fill-opacity:1;fill-rule:nonzero;stroke:none"
             d="M 0,0 H -0.002 -1.917 -3.911 -4.67 -4.673 c -0.474,0 -0.859,-0.384 -0.861,-0.858 v -7.148 c 10e-4,-0.475 0.386,-0.859 0.861,-0.859 0.475,0 0.86,0.384 0.862,0.859 v 6.283 H -0.605 -0.002 0 c 0.476,0 0.862,0.386 0.862,0.861 C 0.862,-0.386 0.476,0 0,0" /></g>
            <g
                    transform="translate(33.0984,40.9538)"
                    id="g184"><path
             id="path186"
             style="fill:#0097dc;fill-opacity:1;fill-rule:nonzero;stroke:none"
             d="m 0,0 h -1.067 c -0.475,0 -0.861,-0.386 -0.861,-0.861 0,-0.476 0.386,-0.861 0.861,-0.861 H 0 c 0.476,0 0.861,0.385 0.861,0.861 C 0.861,-0.386 0.476,0 0,0" /></g></g></g></g></svg>