<?xml version="1.0" encoding="UTF-8" standalone="no"?>
<svg
   xmlns:dc="http://purl.org/dc/elements/1.1/"
   xmlns:cc="http://creativecommons.org/ns#"
   xmlns:rdf="http://www.w3.org/1999/02/22-rdf-syntax-ns#"
   xmlns:svg="http://www.w3.org/2000/svg"
   xmlns="http://www.w3.org/2000/svg"
   viewBox="0 0 97.700798 111.85307"
   height="111.85307"
   width="97.700798"
   xml:space="preserve"
   id="svg2"
   version="1.1"><metadata
     id="metadata8"><rdf:RDF><cc:Work
         rdf:about=""><dc:format>image/svg+xml</dc:format><dc:type
           rdf:resource="http://purl.org/dc/dcmitype/StillImage" /></cc:Work></rdf:RDF></metadata><defs
     id="defs6"><clipPath
       id="clipPath18"
       clipPathUnits="userSpaceOnUse"><path
         id="path16"
         d="M 0,83.89 H 73.276 V 0 H 0 Z" /></clipPath></defs><g
     transform="matrix(1.3333333,0,0,-1.3333333,0,111.85307)"
     id="g10"><g
       id="g12"><g
         clip-path="url(#clipPath18)"
         id="g14"><g
           transform="translate(29.3985,16.4304)"
           id="g20"><path
             id="path22"
             style="fill:#0097dc;fill-opacity:1;fill-rule:nonzero;stroke:none"
             d="m 0,0 c -6.723,0 -12.779,3.994 -15.428,10.175 -0.689,1.609 0.056,3.472 1.665,4.162 1.609,0.689 3.473,-0.056 4.162,-1.665 C -7.952,8.825 -4.184,6.339 0,6.339 c 4.184,0 7.952,2.486 9.601,6.333 0.689,1.609 2.553,2.355 4.162,1.665 1.609,-0.69 2.354,-2.553 1.665,-4.162 C 12.779,3.994 6.723,0 0,0" /></g><g
           transform="translate(56.1598,66.9139)"
           id="g24"><path
             id="path26"
             style="fill:#fff;fill-opacity:1;fill-rule:nonzero;stroke:none"
             d="m 0,0 h -0.008 -7.049 -7.338 -2.792 V -0.001 C -17.19,0 -17.193,0 -17.197,0 c -1.747,0 -3.163,-1.413 -3.17,-3.158 h -10e-4 v -16.505 c 0,-0.027 -0.004,-0.053 -0.004,-0.079 0,-3.578 -2.911,-6.489 -6.488,-6.489 -2.532,0 -4.85,1.488 -5.904,3.792 -0.729,1.591 -2.61,2.29 -4.202,1.562 -1.591,-0.729 -2.291,-2.61 -1.562,-4.201 2.084,-4.551 6.664,-7.492 11.668,-7.492 7.055,0 12.796,5.725 12.826,12.773 h 0.008 v 13.455 h 11.8 v 10e-4 H -0.008 0 c 1.751,0 3.171,1.419 3.171,3.17 C 3.171,-1.42 1.751,0 0,0" /></g><g
           transform="translate(53.3437,47.6354)"
           id="g28"><path
             id="path30"
             style="fill:#0097dc;fill-opacity:1;fill-rule:nonzero;stroke:none"
             d="m 0,0 h -3.926 c -1.751,0 -3.17,1.419 -3.17,3.17 0,1.75 1.419,3.169 3.17,3.169 H 0 C 1.75,6.339 3.169,4.92 3.169,3.17 3.169,1.419 1.75,0 0,0" /></g></g></g></g></svg>